<svg xmlns="http://www.w3.org/2000/svg" xmlns:svg="http://www.w3.org/2000/svg" id="svg2" width="576.386" height="79.261" version="1.1"><metadata id="metadata7"/><g id="layer1" transform="translate(-75.679683,-200.09862)"><g id="g3936"><path font-family="Videopac" style="line-height:125%;-inkscape-font-specification:Videopac" id="path3904" fill="#000" fill-opacity="1" stroke="#000" stroke-opacity="1" d="m 129.28538,258.00867 -11.18014,20.85098 -41.925557,-78.26103 22.360294,0 z" font-size="40" font-style="normal" font-weight="normal" letter-spacing="0" word-spacing="0"/><path font-family="Videopac" style="line-height:125%;-inkscape-font-specification:Videopac" id="path2987" fill="#000" fill-opacity="1" stroke="#000" stroke-opacity="1" d="m 120.90027,231.90304 16.77022,-31.30442 22.36029,0 -27.95036,52.15537 z" font-size="40" font-style="normal" font-weight="normal" letter-spacing="0" word-spacing="0"/><path font-family="Videopac" style="line-height:125%;-inkscape-font-specification:Videopac" id="path2989" fill="#000" fill-opacity="1" stroke="#000" stroke-opacity="1" d="m 165.73266,200.59862 19.62116,0 -0.0558,78.26103 -19.56526,0 z" font-size="40" font-style="normal" font-weight="normal" letter-spacing="0" word-spacing="0"/><path font-family="Videopac" style="line-height:125%;-inkscape-font-specification:Videopac" id="path3908" fill="#000" fill-opacity="1" stroke="#000" stroke-opacity="1" d="m 193.68304,200.59862 19.62114,0 -0.0558,78.26103 -19.56523,0 z" font-size="40" font-style="normal" font-weight="normal" letter-spacing="0" word-spacing="0"/><path font-family="Videopac" style="line-height:125%;-inkscape-font-specification:Videopac" id="path2991" fill="#000" fill-opacity="1" stroke="#000" stroke-opacity="1" d="m 218.83837,220.16389 0,-19.56527 8.38508,0 c 10.80745,9e-5 20.03105,3.81996 27.67087,11.45964 7.63971,7.63985 11.45958,16.86345 11.45966,27.67086 -8e-5,10.8075 -3.81995,20.03113 -11.45966,27.67087 -7.63982,7.63977 -16.86342,11.45966 -27.67087,11.45966 l -8.38508,0 0,-19.56526 8.38508,0 c 5.40371,3e-5 10.01553,-1.90992 13.83545,-5.72982 3.81984,-3.81987 5.72976,-8.43165 5.72982,-13.83545 -6e-5,-5.40367 -1.90998,-10.01549 -5.72982,-13.83542 -3.81992,-3.81983 -8.43174,-5.72975 -13.83545,-5.72981 z" font-size="40" font-style="normal" font-weight="normal" letter-spacing="0" word-spacing="0"/><path font-family="Videopac" style="line-height:125%;-inkscape-font-specification:Videopac" id="path3916" fill="#000" fill-opacity="1" stroke="#000" stroke-opacity="1" d="m 274.85089,200.59862 19.62117,0 -0.0558,78.26103 -19.56526,0 z" font-size="40" font-style="normal" font-weight="normal" letter-spacing="0" word-spacing="0"/><path font-family="Videopac" style="line-height:125%;-inkscape-font-specification:Videopac" id="path3914" fill="#000" fill-opacity="1" stroke="#000" stroke-opacity="1" d="m 300.00622,200.59862 30.74541,0 0,19.56527 -30.74541,0 z" font-size="40" font-style="normal" font-weight="normal" letter-spacing="0" word-spacing="0"/><path font-family="Videopac" style="line-height:125%;-inkscape-font-specification:Videopac" id="path3912" fill="#000" fill-opacity="1" stroke="#000" stroke-opacity="1" d="m 300.00622,259.29439 30.74541,0 0,19.56526 -30.74541,0 z" font-size="40" font-style="normal" font-weight="normal" letter-spacing="0" word-spacing="0"/><path font-family="Videopac" style="line-height:125%;-inkscape-font-specification:Videopac" id="path2993" fill="#000" fill-opacity="1" stroke="#000" stroke-opacity="1" d="m 300.00622,229.94649 30.74541,0 0,19.56527 -30.74541,0 z" font-size="40" font-style="normal" font-weight="normal" letter-spacing="0" word-spacing="0"/><path font-family="Videopac" style="line-height:125%;-inkscape-font-specification:Videopac" id="path3920" fill="#000" fill-opacity="1" stroke="#000" stroke-opacity="1" d="m 397.77661,242.52418 19.67706,0 c -0.59635,9.61494 -4.39761,17.90687 -11.40376,24.87581 -7.63982,7.63977 -16.86343,11.45966 -27.67087,11.45966 -10.8075,0 -20.0311,-3.81989 -27.67084,-11.45966 -6.96897,-6.96894 -10.75157,-15.26087 -11.34787,-24.87581 l 19.67706,0 c 0.559,4.21121 2.40372,7.88202 5.53419,11.01243 3.80121,3.83853 8.4037,5.75781 13.80746,5.75778 5.40371,3e-5 10.02482,-1.91925 13.86338,-5.75778 3.13041,-3.13041 4.97514,-6.80122 5.53419,-11.01243 z" font-size="40" font-style="normal" font-weight="normal" letter-spacing="0" word-spacing="0"/><path font-family="Videopac" style="line-height:125%;-inkscape-font-specification:Videopac" id="path2995" fill="#000" fill-opacity="1" stroke="#000" stroke-opacity="1" d="m 359.03739,236.93409 -19.67706,0 c 0.5963,-9.61488 4.3789,-17.90681 11.34787,-24.87583 7.63974,-7.63968 16.86334,-11.45955 27.67084,-11.45964 10.80744,9e-5 20.03105,3.81996 27.67087,11.45964 7.00615,6.96902 10.80741,15.26095 11.40376,24.87583 l -19.67706,0 c -0.55905,-4.21114 -2.40378,-7.90059 -5.53419,-11.06835 -3.83856,-3.80118 -8.45967,-5.70179 -13.86338,-5.70185 -5.40376,6e-5 -10.00625,1.90067 -13.80746,5.70185 -3.13047,3.16776 -4.97519,6.85721 -5.53419,11.06835 z" font-size="40" font-style="normal" font-weight="normal" letter-spacing="0" word-spacing="0"/><path font-family="Videopac" style="line-height:125%;-inkscape-font-specification:Videopac" id="path3924" fill="#000" fill-opacity="1" stroke="#000" stroke-opacity="1" d="m 426.00648,200.59862 19.56526,0 0,78.26103 -19.56526,0 z" font-size="40" font-style="normal" font-weight="normal" letter-spacing="0" word-spacing="0"/><path font-family="Videopac" style="line-height:125%;-inkscape-font-specification:Videopac" id="path2997" fill="#000" fill-opacity="1" stroke="#000" stroke-opacity="1" d="m 451.1618,220.16389 0,-19.56527 10.50936,0 c 6.74529,9e-5 12.50307,2.38518 17.2733,7.1553 4.77015,4.77026 7.15524,10.52801 7.1553,17.27331 -6e-5,6.78267 -2.38515,12.55908 -7.1553,17.32923 -4.77023,4.77024 -10.52801,7.15532 -17.2733,7.1553 l -10.50936,0 0,-19.56527 10.50936,0 c 1.34156,6e-5 2.48752,-0.47508 3.43789,-1.42545 0.95028,-0.95028 1.42542,-2.11487 1.42547,-3.49381 -5e-5,-1.34156 -0.47519,-2.48753 -1.42547,-3.43789 -0.95037,-0.95025 -2.09633,-1.42539 -3.43789,-1.42545 z" font-size="40" font-style="normal" font-weight="normal" letter-spacing="0" word-spacing="0"/><path font-family="Videopac" style="line-height:125%;-inkscape-font-specification:Videopac" id="path3928" fill="#000" fill-opacity="1" stroke="#000" stroke-opacity="1" d="m 529.42283,247.55524 -16.7702,31.30441 -22.3603,0 27.95035,-52.15539 z" font-size="40" font-style="normal" font-weight="normal" letter-spacing="0" word-spacing="0"/><path font-family="Videopac" style="line-height:125%;-inkscape-font-specification:Videopac" id="path2999" fill="#000" fill-opacity="1" stroke="#000" stroke-opacity="1" d="m 537.58433,252.30679 -16.54662,-30.85721 11.18015,-20.85096 41.92556,78.26103 -22.36029,0 -3.74534,-6.9876 -26.04974,0 10.45343,-19.56526 z" font-size="40" font-style="normal" font-weight="normal" letter-spacing="0" word-spacing="0"/><path font-family="Videopac" style="line-height:125%;-inkscape-font-specification:Videopac" id="path3934" fill="#000" fill-opacity="1" stroke="#000" stroke-opacity="1" d="m 616.18077,259.1267 0,19.62116 c -9.61494,-0.5963 -17.90687,-4.3789 -24.87581,-11.34787 -7.63979,-7.63974 -11.45966,-16.86337 -11.45966,-27.67087 0,-10.80741 3.81987,-20.03101 11.45966,-27.67086 6.96894,-6.96889 15.26087,-10.75149 24.87581,-11.34784 l 0,19.62116 c -4.2112,0.55906 -7.88201,2.40378 -11.01243,5.53416 -3.83855,3.83859 -5.7578,8.45971 -5.75777,13.86338 -3e-5,5.4038 1.91922,10.00628 5.75777,13.80749 3.13042,3.16773 6.80123,5.03109 11.01243,5.59009 z" font-size="40" font-style="normal" font-weight="normal" letter-spacing="0" word-spacing="0"/><path font-family="Videopac" style="line-height:125%;-inkscape-font-specification:Videopac" id="path3932" fill="#000" fill-opacity="1" stroke="#000" stroke-opacity="1" d="m 635.29883,228.82849 c -0.70812,-1.04344 -1.528,-2.03101 -2.45965,-2.96275 -3.16773,-3.13038 -6.85717,-4.9751 -11.06832,-5.53416 l 0,-19.62116 c 9.61485,0.59635 17.90681,4.37895 24.87581,11.34784 1.86329,1.86344 3.50306,3.83858 4.91926,5.9255 z" font-size="40" font-style="normal" font-weight="normal" letter-spacing="0" word-spacing="0"/><path font-family="Videopac" style="line-height:125%;-inkscape-font-specification:Videopac" id="path3001" fill="#000" fill-opacity="1" stroke="#000" stroke-opacity="1" d="m 651.56593,261.47452 c -1.4162,2.08697 -3.05597,4.06212 -4.91926,5.92547 -6.969,6.96897 -15.26096,10.75157 -24.87581,11.34787 l 0,-19.62116 c 4.21115,-0.559 7.90059,-2.42236 11.06832,-5.59009 0.93165,-0.93165 1.75153,-1.90059 2.45965,-2.90683 z" font-size="40" font-style="normal" font-weight="normal" letter-spacing="0" word-spacing="0"/></g></g></svg>